<?xml version="1.0" encoding="UTF-8" standalone="no"?><svg xmlns="http://www.w3.org/2000/svg" xmlns:xlink="http://www.w3.org/1999/xlink" contentScriptType="application/ecmascript" contentStyleType="text/css" height="235px" preserveAspectRatio="none" style="width:145px;height:235px;" version="1.1" viewBox="0 0 145 235" width="145px" zoomAndPan="magnify"><defs/><g><path d="M17,8.9688 L17,10.9688 L25,10.9688 L25,9.9688 L20,9.9688 L20,8.9688 L17,8.9688 M17,11.9688 L17,16.4688 C17,16.7488 17.22,16.9688 17.5,16.9688 L24.5,16.9688 C24.78,16.9688 25,16.7488 25,16.4688 L25,11.9688 L17,11.9688 " fill="#000000" style="stroke: ; stroke-width: 0.0; stroke-dasharray: ;"/><text fill="#000000" font-family="sans-serif" font-size="12" lengthAdjust="spacingAndGlyphs" textLength="61" x="26" y="17.1387">diretorio1</text><path d="M27,22.9375 L27,24.9375 L35,24.9375 L35,23.9375 L30,23.9375 L30,22.9375 L27,22.9375 M27,25.9375 L27,30.4375 C27,30.7175 27.22,30.9375 27.5,30.9375 L34.5,30.9375 C34.78,30.9375 35,30.7175 35,30.4375 L35,25.9375 L27,25.9375 " fill="#000000" style="stroke: ; stroke-width: 0.0; stroke-dasharray: ;"/><text fill="#000000" font-family="sans-serif" font-size="12" lengthAdjust="spacingAndGlyphs" textLength="84" x="36" y="31.1074">subdiretorio1</text><path d="M37,36.9063 L37,38.9063 L45,38.9063 L45,37.9063 L40,37.9063 L40,36.9063 L37,36.9063 M37,39.9063 L37,44.4063 C37,44.6863 37.22,44.9063 37.5,44.9063 L44.5,44.9063 C44.78,44.9063 45,44.6863 45,44.4063 L45,39.9063 L37,39.9063 " fill="#000000" style="stroke: ; stroke-width: 0.0; stroke-dasharray: ;"/><text fill="#000000" font-family="sans-serif" font-size="12" lengthAdjust="spacingAndGlyphs" textLength="92" x="46" y="45.0762">pastaAno2001</text><path d="M37,50.875 L37,52.875 L45,52.875 L45,51.875 L40,51.875 L40,50.875 L37,50.875 M37,53.875 L37,58.375 C37,58.655 37.22,58.875 37.5,58.875 L44.5,58.875 C44.78,58.875 45,58.655 45,58.375 L45,53.875 L37,53.875 " fill="#000000" style="stroke: ; stroke-width: 0.0; stroke-dasharray: ;"/><text fill="#000000" font-family="sans-serif" font-size="12" lengthAdjust="spacingAndGlyphs" textLength="92" x="46" y="59.0449">pastaAno2002</text><path d="M37,64.8438 L37,66.8438 L45,66.8438 L45,65.8438 L40,65.8438 L40,64.8438 L37,64.8438 M37,67.8438 L37,72.3438 C37,72.6238 37.22,72.8438 37.5,72.8438 L44.5,72.8438 C44.78,72.8438 45,72.6238 45,72.3438 L45,67.8438 L37,67.8438 " fill="#000000" style="stroke: ; stroke-width: 0.0; stroke-dasharray: ;"/><text fill="#000000" font-family="sans-serif" font-size="12" lengthAdjust="spacingAndGlyphs" textLength="92" x="46" y="73.0137">pastaAno2003</text><path d="M37,78.8125 L37,80.8125 L45,80.8125 L45,79.8125 L40,79.8125 L40,78.8125 L37,78.8125 M37,81.8125 L37,86.3125 C37,86.5925 37.22,86.8125 37.5,86.8125 L44.5,86.8125 C44.78,86.8125 45,86.5925 45,86.3125 L45,81.8125 L37,81.8125 " fill="#000000" style="stroke: ; stroke-width: 0.0; stroke-dasharray: ;"/><text fill="#000000" font-family="sans-serif" font-size="12" lengthAdjust="spacingAndGlyphs" textLength="92" x="46" y="86.9824">pastaAno2004</text><path d="M27,92.7813 L27,94.7813 L35,94.7813 L35,93.7813 L30,93.7813 L30,92.7813 L27,92.7813 M27,95.7813 L27,100.2813 C27,100.5613 27.22,100.7813 27.5,100.7813 L34.5,100.7813 C34.78,100.7813 35,100.5613 35,100.2813 L35,95.7813 L27,95.7813 " fill="#000000" style="stroke: ; stroke-width: 0.0; stroke-dasharray: ;"/><text fill="#000000" font-family="sans-serif" font-size="12" lengthAdjust="spacingAndGlyphs" textLength="84" x="36" y="100.9512">subdiretorio2</text><path d="M37,106.75 L37,108.75 L45,108.75 L45,107.75 L40,107.75 L40,106.75 L37,106.75 M37,109.75 L37,114.25 C37,114.53 37.22,114.75 37.5,114.75 L44.5,114.75 C44.78,114.75 45,114.53 45,114.25 L45,109.75 L37,109.75 " fill="#000000" style="stroke: ; stroke-width: 0.0; stroke-dasharray: ;"/><text fill="#000000" font-family="sans-serif" font-size="12" lengthAdjust="spacingAndGlyphs" textLength="92" x="46" y="114.9199">pastaAno2001</text><path d="M37,120.7188 L37,122.7188 L45,122.7188 L45,121.7188 L40,121.7188 L40,120.7188 L37,120.7188 M37,123.7188 L37,128.2188 C37,128.4988 37.22,128.7188 37.5,128.7188 L44.5,128.7188 C44.78,128.7188 45,128.4988 45,128.2188 L45,123.7188 L37,123.7188 " fill="#000000" style="stroke: ; stroke-width: 0.0; stroke-dasharray: ;"/><text fill="#000000" font-family="sans-serif" font-size="12" lengthAdjust="spacingAndGlyphs" textLength="92" x="46" y="128.8887">pastaAno2002</text><path d="M37,134.6875 L37,136.6875 L45,136.6875 L45,135.6875 L40,135.6875 L40,134.6875 L37,134.6875 M37,137.6875 L37,142.1875 C37,142.4675 37.22,142.6875 37.5,142.6875 L44.5,142.6875 C44.78,142.6875 45,142.4675 45,142.1875 L45,137.6875 L37,137.6875 " fill="#000000" style="stroke: ; stroke-width: 0.0; stroke-dasharray: ;"/><text fill="#000000" font-family="sans-serif" font-size="12" lengthAdjust="spacingAndGlyphs" textLength="92" x="46" y="142.8574">pastaAno2003</text><path d="M37,148.6563 L37,150.6563 L45,150.6563 L45,149.6563 L40,149.6563 L40,148.6563 L37,148.6563 M37,151.6563 L37,156.1563 C37,156.4363 37.22,156.6563 37.5,156.6563 L44.5,156.6563 C44.78,156.6563 45,156.4363 45,156.1563 L45,151.6563 L37,151.6563 " fill="#000000" style="stroke: ; stroke-width: 0.0; stroke-dasharray: ;"/><text fill="#000000" font-family="sans-serif" font-size="12" lengthAdjust="spacingAndGlyphs" textLength="92" x="46" y="156.8262">pastaAno2004</text><path d="M27,162.625 L27,164.625 L35,164.625 L35,163.625 L30,163.625 L30,162.625 L27,162.625 M27,165.625 L27,170.125 C27,170.405 27.22,170.625 27.5,170.625 L34.5,170.625 C34.78,170.625 35,170.405 35,170.125 L35,165.625 L27,165.625 " fill="#000000" style="stroke: ; stroke-width: 0.0; stroke-dasharray: ;"/><text fill="#000000" font-family="sans-serif" font-size="12" lengthAdjust="spacingAndGlyphs" textLength="84" x="36" y="170.7949">subdiretorio3</text><path d="M37,176.5938 L37,178.5938 L45,178.5938 L45,177.5938 L40,177.5938 L40,176.5938 L37,176.5938 M37,179.5938 L37,184.0938 C37,184.3738 37.22,184.5938 37.5,184.5938 L44.5,184.5938 C44.78,184.5938 45,184.3738 45,184.0938 L45,179.5938 L37,179.5938 " fill="#000000" style="stroke: ; stroke-width: 0.0; stroke-dasharray: ;"/><text fill="#000000" font-family="sans-serif" font-size="12" lengthAdjust="spacingAndGlyphs" textLength="92" x="46" y="184.7637">pastaAno2001</text><path d="M37,190.5625 L37,192.5625 L45,192.5625 L45,191.5625 L40,191.5625 L40,190.5625 L37,190.5625 M37,193.5625 L37,198.0625 C37,198.3425 37.22,198.5625 37.5,198.5625 L44.5,198.5625 C44.78,198.5625 45,198.3425 45,198.0625 L45,193.5625 L37,193.5625 " fill="#000000" style="stroke: ; stroke-width: 0.0; stroke-dasharray: ;"/><text fill="#000000" font-family="sans-serif" font-size="12" lengthAdjust="spacingAndGlyphs" textLength="92" x="46" y="198.7324">pastaAno2002</text><path d="M37,204.5313 L37,206.5313 L45,206.5313 L45,205.5313 L40,205.5313 L40,204.5313 L37,204.5313 M37,207.5313 L37,212.0313 C37,212.3113 37.22,212.5313 37.5,212.5313 L44.5,212.5313 C44.78,212.5313 45,212.3113 45,212.0313 L45,207.5313 L37,207.5313 " fill="#000000" style="stroke: ; stroke-width: 0.0; stroke-dasharray: ;"/><text fill="#000000" font-family="sans-serif" font-size="12" lengthAdjust="spacingAndGlyphs" textLength="92" x="46" y="212.7012">pastaAno2003</text><path d="M37,218.5 L37,220.5 L45,220.5 L45,219.5 L40,219.5 L40,218.5 L37,218.5 M37,221.5 L37,226 C37,226.28 37.22,226.5 37.5,226.5 L44.5,226.5 C44.78,226.5 45,226.28 45,226 L45,221.5 L37,221.5 " fill="#000000" style="stroke: ; stroke-width: 0.0; stroke-dasharray: ;"/><text fill="#000000" font-family="sans-serif" font-size="12" lengthAdjust="spacingAndGlyphs" textLength="92" x="46" y="226.6699">pastaAno2004</text><rect fill="none" height="2" style="stroke: #888888; stroke-width: 1.0;" width="2" x="9" y="11.9844"/><rect fill="none" height="2" style="stroke: #888888; stroke-width: 1.0;" width="2" x="19" y="25.9531"/><line style="stroke: #888888; stroke-width: 1.0;" x1="10" x2="10" y1="14.9844" y2="26.9531"/><line style="stroke: #888888; stroke-width: 1.0;" x1="10" x2="18" y1="26.9531" y2="26.9531"/><line style="stroke: #888888; stroke-width: 1.0;" x1="20" x2="20" y1="28.9531" y2="40.9219"/><line style="stroke: #888888; stroke-width: 1.0;" x1="20" x2="28" y1="40.9219" y2="40.9219"/><line style="stroke: #888888; stroke-width: 1.0;" x1="20" x2="20" y1="28.9531" y2="54.8906"/><line style="stroke: #888888; stroke-width: 1.0;" x1="20" x2="28" y1="54.8906" y2="54.8906"/><line style="stroke: #888888; stroke-width: 1.0;" x1="20" x2="20" y1="28.9531" y2="68.8594"/><line style="stroke: #888888; stroke-width: 1.0;" x1="20" x2="28" y1="68.8594" y2="68.8594"/><line style="stroke: #888888; stroke-width: 1.0;" x1="20" x2="20" y1="28.9531" y2="82.8281"/><line style="stroke: #888888; stroke-width: 1.0;" x1="20" x2="28" y1="82.8281" y2="82.8281"/><rect fill="none" height="2" style="stroke: #888888; stroke-width: 1.0;" width="2" x="19" y="95.7969"/><line style="stroke: #888888; stroke-width: 1.0;" x1="10" x2="10" y1="14.9844" y2="96.7969"/><line style="stroke: #888888; stroke-width: 1.0;" x1="10" x2="18" y1="96.7969" y2="96.7969"/><line style="stroke: #888888; stroke-width: 1.0;" x1="20" x2="20" y1="98.7969" y2="110.7656"/><line style="stroke: #888888; stroke-width: 1.0;" x1="20" x2="28" y1="110.7656" y2="110.7656"/><line style="stroke: #888888; stroke-width: 1.0;" x1="20" x2="20" y1="98.7969" y2="124.7344"/><line style="stroke: #888888; stroke-width: 1.0;" x1="20" x2="28" y1="124.7344" y2="124.7344"/><line style="stroke: #888888; stroke-width: 1.0;" x1="20" x2="20" y1="98.7969" y2="138.7031"/><line style="stroke: #888888; stroke-width: 1.0;" x1="20" x2="28" y1="138.7031" y2="138.7031"/><line style="stroke: #888888; stroke-width: 1.0;" x1="20" x2="20" y1="98.7969" y2="152.6719"/><line style="stroke: #888888; stroke-width: 1.0;" x1="20" x2="28" y1="152.6719" y2="152.6719"/><rect fill="none" height="2" style="stroke: #888888; stroke-width: 1.0;" width="2" x="19" y="165.6406"/><line style="stroke: #888888; stroke-width: 1.0;" x1="10" x2="10" y1="14.9844" y2="166.6406"/><line style="stroke: #888888; stroke-width: 1.0;" x1="10" x2="18" y1="166.6406" y2="166.6406"/><line style="stroke: #888888; stroke-width: 1.0;" x1="20" x2="20" y1="168.6406" y2="180.6094"/><line style="stroke: #888888; stroke-width: 1.0;" x1="20" x2="28" y1="180.6094" y2="180.6094"/><line style="stroke: #888888; stroke-width: 1.0;" x1="20" x2="20" y1="168.6406" y2="194.5781"/><line style="stroke: #888888; stroke-width: 1.0;" x1="20" x2="28" y1="194.5781" y2="194.5781"/><line style="stroke: #888888; stroke-width: 1.0;" x1="20" x2="20" y1="168.6406" y2="208.5469"/><line style="stroke: #888888; stroke-width: 1.0;" x1="20" x2="28" y1="208.5469" y2="208.5469"/><line style="stroke: #888888; stroke-width: 1.0;" x1="20" x2="20" y1="168.6406" y2="222.5156"/><line style="stroke: #888888; stroke-width: 1.0;" x1="20" x2="28" y1="222.5156" y2="222.5156"/></g></svg>